<svg xmlns="http://www.w3.org/2000/svg" width="160" height="160" viewBox="0 0 160 160" fill="none">
  <rect width="160" height="160" rx="24" fill="#0F172A"/>
  <path d="M40 118V42c0-2.2 1.8-4 4-4h24.5c14.3 0 25.5 3.4 33.7 10.1 8.1 6.7 12.2 15.7 12.2 27.1 0 11.5-4.1 20.6-12.2 27.3-8.2 6.7-19.4 10.1-33.7 10.1H56v5.4c0 6.9-5.2 12-12 12-2.6 0-4-.4-4-.4Zm16-30.4h16.5c8.9 0 15.6-1.9 20.2-5.8 4.6-3.9 6.9-9.4 6.9-16.6 0-7.1-2.3-12.6-6.9-16.5-4.6-3.9-11.3-5.8-20.2-5.8H56v44.7Z" fill="url(#g)"/>
  <path d="M118.2 118c-7.8-1.2-13.9-4.2-18.5-8.9-4.6-4.8-6.9-10.9-6.9-18.5V42.6c0-2.2 1.8-4 4-4 6.7 0 12 5.3 12 12v35.7c0 11.7 5.3 18.5 16 20.5 1.9.4 3.4 1.7 3.4 3.7v.7c0 5.8-5.4 10.2-10 9.8Z" fill="#34D399"/>
  <defs>
    <linearGradient id="g" x1="40" y1="38" x2="132" y2="122" gradientUnits="userSpaceOnUse">
      <stop stop-color="#38BDF8"/>
      <stop offset="1" stop-color="#6366F1"/>
    </linearGradient>
  </defs>
</svg>
